# xmcd CD database file
#
# Track frame offsets:
#	150
#	22955
#	42678
#	64942
#	91631
#	110262
#	126723
#	146830
#	165163
#	188037
#	209029
#	230452
#	256299
#
# Disc length: 3707 seconds
#
# Revision: 0
# Processed by: cddbd v1.5PL3 Copyright (c) Steve Scherf et al.
# Submitted via: CDex 1.51
#
DISCID=b90e790d
DTITLE=Camila Benson - Sound of Bossa Nova
DYEAR=1999
DGENRE=Jazz
TTITLE0=Felicidade - The Girl From Ipanema
TTITLE1=C'est Si Bon
TTITLE2=Agva du Beber-Acapella
TTITLE3=Besame Mucho/Quizas Quizas
TTITLE4=Meditation
TTITLE5=Corcovado
TTITLE6=Manha de Carnaval
TTITLE7=Wave
TTITLE8=How Insensitive
TTITLE9=Samba de Verao (So Nice)
TTITLE10=Little Boat
TTITLE11=A Song for You
TTITLE12=Agva Du Beber
EXTD=YEAR: 1999
EXTT0=
EXTT1=
EXTT2=
EXTT3=
EXTT4=
EXTT5=
EXTT6=
EXTT7=
EXTT8=
EXTT9=
EXTT10=
EXTT11=
EXTT12=
PLAYORDER=
